<svg xmlns="http://www.w3.org/2000/svg" width="255" height="43" viewBox="0 0 255 43">
    <g fill="none" fill-rule="evenodd">
        <path fill="#23BCA5" d="M194.244 11.138c3.308-.155 6.404.502 9.068 2.573 1.456 1.13 2.532 2.577 3.109 4.345.49 1.506-.102 2.715-1.571 3.327-.494.206-.98.435-1.481.622-1.286.482-2.453.142-3.1-1.042-.764-1.401-1.648-2.632-3.303-2.993-2.09-.456-4.198-.541-6.237.213-1.258.466-1.571 1.096-1.538 2.502.027 1.137.488 1.78 1.696 2.198 1.952.677 4.019.644 6.038.885 2.116.252 4.191.658 6.058 1.689 3.074 1.697 4.603 5.211 4.034 8.814-.71 4.493-3.399 6.844-7.772 7.86-3.977.923-8.002.844-11.814-.902-2.897-1.326-4.78-3.605-5.755-6.617a2.303 2.303 0 0 1 1.12-2.761c.882-.455 1.813-.834 2.847-.912 1.209-.09 2.075.43 2.484 1.475 1.012 2.585 3.022 3.527 5.6 3.618 1.577.056 3.152.029 4.656-.553 1.162-.45 1.759-1.285 1.737-2.419-.023-1.192-.494-1.782-1.808-2.197-2.254-.711-4.624-.685-6.931-1.067-1.357-.224-2.695-.49-3.973-1.02-2.732-1.13-4.612-3.06-5.07-6.005-.556-3.566-.055-6.91 3.06-9.317 1.86-1.438 4.05-2.035 6.336-2.3.826-.097 1.673-.016 2.51-.016"/>
        <path fill="#24BCA5" d="M223.267 10.998c2.955-.15 5.76.364 8.308 1.948 1.897 1.18 3.207 2.863 4.01 4.914.566 1.442.007 2.655-1.396 3.337-.483.235-.974.461-1.477.646-1.568.575-2.715.253-3.457-1.253-1.043-2.114-2.759-2.916-4.967-3.004-1.415-.056-2.827-.088-4.195.383-1.201.413-1.895 1.252-1.914 2.323-.023 1.282.541 2.08 1.885 2.532 1.935.651 3.978.62 5.974.867 2.527.314 5.002.784 7.093 2.339 2.615 1.944 3.327 4.72 3.077 7.788-.407 4.967-3.984 7.567-8.311 8.41-3.318.645-6.627.621-9.876-.414-3.458-1.101-5.844-3.347-7.122-6.758-.605-1.617-.017-3.01 1.599-3.565.754-.26 1.493-.567 2.328-.61 1.09-.057 1.97.393 2.307 1.3 1.329 3.578 4.235 3.943 7.414 3.825 1.043-.039 2.08-.173 3.058-.585 1.107-.466 1.704-1.359 1.667-2.51-.034-1.077-.566-1.705-1.836-2.1-2.233-.694-4.575-.72-6.864-1.062-2.357-.354-4.608-.913-6.499-2.476-1.703-1.406-2.608-3.223-2.787-5.394-.204-2.493-.018-4.913 1.63-6.983 2.055-2.58 4.904-3.536 8.03-3.886.765-.085 1.547-.012 2.321-.012"/>
        <text fill="#24BCA5" font-family="Panton-BlackCaps, Panton" font-size="8.4" font-weight="700" letter-spacing=".233" transform="translate(242 4)">
            <tspan x="1.069" y="8.157">TM</tspan>
        </text>
        <path fill="#23BCA5" d="M164.846 23.579h5.44c.447 0 .918.04.86-.647-.105-1.266-.395-2.462-1.299-3.42-1.703-1.805-3.91-1.987-6.154-1.756-3.052.316-4.756 1.94-5.058 4.58-.127 1.11-.022 1.238 1.074 1.242 1.712.006 3.425.002 5.137 0m2.52 6.214c-2.553 0-5.105.026-7.657-.014-.799-.012-1.12.182-1.118 1.062.005 3.455 1.718 5.302 5.172 5.524 1.843.118 3.62-.056 5.242-1.01.911-.537 1.603-1.31 2.154-2.222.958-1.586 2.281-1.978 3.946-1.202.335.157.662.33.987.506 1.69.917 2.106 2.411 1.17 4.07-2.374 4.203-6.17 6.027-10.773 6.404-2.726.224-5.428.079-8.014-1.01-3.62-1.523-5.962-4.133-6.51-8.062-.647-4.646-.79-9.346.14-13.959.783-3.883 3.296-6.52 7.024-7.804 3.795-1.307 7.678-1.287 11.466.03 4.546 1.58 7.41 5.745 7.534 10.694a76.55 76.55 0 0 1-.002 3.843c-.048 1.924-1.285 3.135-3.204 3.146-2.519.015-5.038.004-7.557.004"/>
        <path fill="#26BCA6" d="M139.511 20.928c0-5.899-.001-11.797 0-17.696.001-2.473.723-3.103 3.17-3.217 3.225-.15 3.942.814 3.932 3.935-.036 11.53-.014 23.06-.014 34.589 0 .603-.005 1.2-.21 1.785-.34.97-1.025 1.468-2.036 1.52-.64.032-1.285.01-1.927.008-2.122-.003-2.91-.786-2.913-2.926-.005-5.362-.002-10.725-.002-16.087v-1.91"/>
        <path fill="#FFF" d="M122.179 29.206c0-3.547-.002-7.095 0-10.642 0-1.697.55-2.456 2.082-3.044 3.449-1.324 7.036-1.619 10.68-1.56.756.013 1.066.375 1.125 1.103.148 1.827-.13 2.189-1.887 2.147a25.181 25.181 0 0 0-5.448.476l-.195.039c-2.697.587-2.884.821-2.884 3.62 0 6.283.002 12.567 0 18.851 0 1.316-.06 1.373-1.34 1.379-2.133.01-2.133.01-2.133-2.132V29.206M106.545 26.02c2.352 0 4.704.002 7.056-.003.465-.002.985.069 1.027-.639.245-4.111-1.232-7.77-6.138-8.503-2.481-.37-4.935-.253-7.076 1.211-2.417 1.652-2.926 4.162-2.875 6.895.014.79.267 1.061 1.052 1.05 2.317-.033 4.636-.012 6.954-.012m1.449 2.69c-2.792-.001-5.583.018-8.374-.014-.777-.009-1.115.236-1.055 1.039.096 1.296-.059 2.59.23 3.897.551 2.489 2.057 4.052 4.442 4.7 3.406.927 6.661.645 9.517-1.678.655-.533 1.131-1.223 1.589-1.927.674-1.036 1.214-1.044 2.73-.07.794.509.842.966.249 1.94-1.912 3.138-4.855 4.625-8.378 5.077-2.584.33-5.183.278-7.675-.588-3.583-1.245-5.673-3.86-6.044-7.554-.384-3.826-.504-7.714.072-11.527.72-4.762 3.927-7.645 8.74-8.17 2.55-.277 5.111-.285 7.573.603 3.6 1.298 5.706 3.854 6.321 7.624.266 1.627.305 3.268.243 4.909-.049 1.306-.512 1.733-1.807 1.736-2.791.008-5.582.003-8.373.002M86.999 27.93c0-2.792-.02-5.584.014-8.375.009-.677-.199-1.06-.849-1.271-2.652-.864-5.352-1.362-8.152-1.113-3.508.31-5.764 2.458-5.897 5.867a132.055 132.055 0 0 0-.003 9.784c.096 2.75 1.52 4.753 4.197 5.554 3.344 1.001 6.67.537 9.918-.6.708-.248.78-.825.777-1.471-.014-2.792-.006-5.583-.005-8.375m3.639-7.016c0 5.451.001 10.902-.001 16.353 0 2.008-.333 2.572-2.184 3.276-4.497 1.712-9.12 2.129-13.784.878-3.153-.845-5.026-3.038-5.844-6.2-.483-1.868-.296-3.745-.33-5.62-.035-2.051-.01-4.104-.007-6.157.01-5.768 3.655-9.45 9.425-9.565 2.752-.055 5.455.194 8.074 1.082.725.246 1.033.119 1.024-.734-.037-3.196-.017-6.393-.015-9.59 0-1.738.04-1.775 1.726-1.776.237 0 .474.018.708-.004.89-.082 1.212.38 1.209 1.2-.007 2.153-.001 4.307-.001 6.46v10.397M53.135 29.188c0-3.616-.003-7.231.002-10.847.002-1.493.582-2.282 1.954-2.803 3.51-1.333 7.16-1.645 10.869-1.575.75.014 1.071.32 1.086 1.103.041 2.139.045 2.185-2.052 2.152-2.363-.038-4.674.23-6.94.93-1.059.327-1.488.956-1.483 2.079.03 6.623.016 13.247.015 19.87 0 1.44-.039 1.48-1.47 1.476-2.145-.005-1.98.2-1.98-2.044-.002-3.447 0-6.894 0-10.34M45.101 27.928h-.008c0-1.55.044-3.101-.011-4.65-.065-1.819-.646-3.45-2.183-4.561-3.1-2.238-6.494-2.208-9.903-.98-2.126.765-3.54 2.366-3.707 4.72-.254 3.562-.195 7.136-.034 10.7.103 2.29 1.43 3.836 3.488 4.785 2.202 1.017 4.518 1.135 6.82.63 3.94-.866 5.535-2.974 5.538-7.004v-3.64m3.467-.047c0 1.617.005 3.235 0 4.852-.014 3.727-1.669 6.54-5.045 8.048-3.907 1.745-8.02 1.777-12.024.322-4.045-1.47-5.865-4.625-5.884-8.836-.015-3.164-.124-6.331.077-9.495.266-4.202 2.404-7.102 6.441-8.296 4.023-1.19 8.061-1.179 11.885.807 2.98 1.547 4.422 4.128 4.539 7.443.06 1.717.01 3.437.01 5.155M18.604 27.717c-.088-2.017.09-3.958-.315-5.9-.437-2.095-1.965-3.9-4.022-4.445-3.432-.908-6.704-.194-9.954.912-.617.21-.827.535-.825 1.172.018 5.553.015 11.105.007 16.658-.002.76.279 1.243 1.017 1.54 2.657 1.066 5.423 1.33 8.21.942 3.265-.453 4.917-2.225 5.608-5.426.397-1.843.158-3.687.274-5.453M.01 20.826c0-5.583-.002-11.166 0-16.75.001-1.283.083-1.362 1.388-1.366 2.32-.008 2.1-.155 2.102 2.132.002 3.094.026 6.188-.016 9.282-.012.92.233 1.09 1.096.788 2.852-1 5.8-1.381 8.813-1.123 5.976.513 8.367 4.057 8.634 9.32.152 2.986.142 5.99-.002 8.977-.187 3.903-1.504 7.249-5.426 8.886-1.943.811-4.02 1.025-6.113.982-3-.062-5.938-.44-8.735-1.645C.506 39.77-.006 38.904 0 37.574c.024-5.583.01-11.165.01-16.748"/>
    </g>
</svg>
