<svg xmlns="http://www.w3.org/2000/svg" width="182" height="40" viewBox="0 0 182 40">
    <g fill="none" fill-rule="evenodd">
        <path fill="#909495" d="M12.555 0l3.271 5.76h15.088c5.345 9.102 8.018 13.724 8.018 13.867 0 .142-2.602 4.942-7.807 14.4H16.037l-3.482 5.866H34.4l11.497-19.626L34.606 0h-22.05z"/>
        <path fill="#0F96D8" d="M10.867 1.067l3.271 5.653L3.376 25.6 0 20.16zM15.404 8.853l3.376 5.654-7.49 13.12 3.164 5.76-3.165 5.76-6.647-11.52zM54.864 16.213h6.014v-2.24h-8.23v11.734h2.216V21.44h5.697v-1.92h-5.697zM60.034 25.707l5.064-11.52h2.427l5.17 11.52h-2.427l-.95-2.134h-6.014l-.95 2.134h-2.32zm6.33-9.067l-2.216 4.8h4.432l-2.216-4.8zM73.75 25.707h7.913v-1.92h-5.909v-9.814H73.75zM105.19 13.973h1.794l5.698 7.36v-7.36h2.11v11.734h-1.266l-6.225-8v8h-2.11z"/>
        <path fill="#909495" d="M130.618 25.707h8.652v-2.134h-6.542v-2.666h6.225v-1.92h-6.225v-2.88h6.542v-2.134l-8.652.107zM151.297 13.973h2.216v9.814h5.803v1.92h-8.019zM170.5 14.08l2.637-.107 2.955 4.907 3.165-4.907 2.638.107-4.643 6.507-.105 5.12h-2.11l-.106-5.12zM119.118 13.973h5.908c2.954 0 4.326 1.174 4.326 5.867s-1.372 5.76-4.326 5.867c-1.97.07-3.939.07-5.908 0V13.973zm2.11 2.027v7.787a30.16 30.16 0 0 0 3.587 0c1.9-.107 2.532-.96 2.532-3.894 0-2.933-.738-3.893-2.532-3.893h-3.587zM142.54 22.237v3.47h-2.11V14.08h5.69c2.724 0 3.911 1.519 3.911 4.373 0 2.855-1.995 3.784-3.91 3.784h-3.58zm0-6.024v4.039h3.19c1.073 0 2.191-.46 2.191-1.874 0-1.413-.665-2.165-2.192-2.165h-3.189z"/>
        <path fill="#0F96D8" d="M98.122 25.813c-3.35 0-5.698-2.532-5.698-5.92 0-3.387 2.505-5.92 5.856-5.92 3.35 0 5.75 2.533 5.75 5.92 0 3.388-2.558 5.92-5.908 5.92zm.054-2.026c2.203 0 3.886-1.666 3.886-3.894 0-2.227-1.578-3.893-3.782-3.893-2.203 0-3.851 1.666-3.851 3.893 0 2.228 1.543 3.894 3.747 3.894zM91.992 15.69c-.46.47-.922.964-1.383 1.482-.672-.731-1.64-1.172-2.774-1.172-2.204 0-3.851 1.666-3.851 3.893 0 2.228 1.543 3.894 3.747 3.894 1.07 0 2.017-.393 2.708-1.052l1.585 1.247c-1.066 1.141-2.599 1.831-4.347 1.831-3.351 0-5.698-2.532-5.698-5.92 0-3.387 2.505-5.92 5.856-5.92 1.69 0 3.137.644 4.157 1.717z"/>
        <path fill="#909495" d="M165.435 25.813c-3.35 0-5.697-2.532-5.697-5.92 0-3.387 2.505-5.92 5.856-5.92 3.35 0 5.75 2.533 5.75 5.92 0 3.388-2.558 5.92-5.909 5.92zm.055-2.026c2.203 0 3.885-1.666 3.885-3.894 0-2.227-1.578-3.893-3.781-3.893-2.204 0-3.851 1.666-3.851 3.893 0 2.228 1.543 3.894 3.747 3.894z"/>
    </g>
</svg>
